<svg width="20" height="20" viewBox="0 0 20 20" fill="none" xmlns="http://www.w3.org/2000/svg">
<path d="M12.2657 16.5862C12.4767 16.7893 12.7267 16.8987 13.0236 16.8987C13.6329 16.8987 14.1173 16.4143 14.1173 15.8127C14.1173 15.5159 13.9923 15.2346 13.7736 15.0237L8.46106 9.85181L13.7736 4.69556C13.9923 4.47681 14.1173 4.19556 14.1173 3.90649C14.1173 3.30493 13.6329 2.82056 13.0236 2.82056C12.7189 2.82056 12.4767 2.92212 12.2657 3.12524L6.27356 8.98462C6.00793 9.24243 5.88293 9.52368 5.87512 9.85962C5.87512 10.1877 6.00012 10.469 6.27356 10.7346L12.2657 16.5862Z" fill="#8667F2"/>
</svg>
