<?xml version="1.0" encoding="UTF-8" standalone="no"?>
<svg
   xmlns:dc="http://purl.org/dc/elements/1.1/"
   xmlns:cc="http://creativecommons.org/ns#"
   xmlns:rdf="http://www.w3.org/1999/02/22-rdf-syntax-ns#"
   xmlns:svg="http://www.w3.org/2000/svg"
   xmlns="http://www.w3.org/2000/svg"
   xmlns:sodipodi="http://sodipodi.sourceforge.net/DTD/sodipodi-0.dtd"
   xmlns:inkscape="http://www.inkscape.org/namespaces/inkscape"
   width="21.621401"
   height="21.6213"
   viewBox="0 0 21.621401 21.6213"
   version="1.1"
   id="svg57"
   sodipodi:docname="redact-icon-minimise.svg"
   style="fill:none"
   inkscape:version="0.92.5 (2060ec1f9f, 2020-04-08)">
  <metadata
     id="metadata63">
    <rdf:RDF>
      <cc:Work
         rdf:about="">
        <dc:format>image/svg+xml</dc:format>
        <dc:type
           rdf:resource="http://purl.org/dc/dcmitype/StillImage" />
      </cc:Work>
    </rdf:RDF>
  </metadata>
  <defs
     id="defs61" />
  <sodipodi:namedview
     pagecolor="#ffffff"
     bordercolor="#666666"
     borderopacity="1"
     objecttolerance="10"
     gridtolerance="10"
     guidetolerance="10"
     inkscape:pageopacity="0"
     inkscape:pageshadow="2"
     inkscape:window-width="1280"
     inkscape:window-height="1000"
     id="namedview59"
     showgrid="false"
     inkscape:zoom="17.545455"
     inkscape:cx="10.7499"
     inkscape:cy="10.75"
     inkscape:window-x="0"
     inkscape:window-y="0"
     inkscape:window-maximized="1"
     inkscape:current-layer="svg57" />
  <path
     d="m 9.75,2.8713 h -7 C 2.2196,2.8713 1.7109,3.082 1.3358,3.4571 0.9608,3.8322 0.75,4.3409 0.75,4.8713 v 14 c 0,0.5304 0.2108,1.0391 0.5858,1.4142 0.3751,0.3751 0.8838,0.5858 1.4142,0.5858 h 14 c 0.5305,0 1.0392,-0.2107 1.4143,-0.5858 0.375,-0.3751 0.5857,-0.8838 0.5857,-1.4142 v -7"
     id="path53"
     inkscape:connector-curvature="0"
     style="stroke:#8667f2;stroke-width:1.5;stroke-linecap:round;stroke-linejoin:round" />
  <path
     d="M 17.25,1.3713 C 17.6479,0.9735 18.1874,0.75 18.75,0.75 c 0.5626,0 1.1022,0.2235 1.5,0.6213 0.3979,0.3978 0.6214,0.9374 0.6214,1.5 0,0.5626 -0.2235,1.1022 -0.6214,1.5 l -9.5,9.5 -4,1 1,-4 z"
     id="path55"
     inkscape:connector-curvature="0"
     style="stroke:#8667f2;stroke-width:1.5;stroke-linecap:round;stroke-linejoin:round" />
</svg>
